<?xml version="1.0" encoding="UTF-8" standalone="no"?><!DOCTYPE svg PUBLIC "-//W3C//DTD SVG 1.1//EN" "http://www.w3.org/Graphics/SVG/1.1/DTD/svg11.dtd"><svg width="100%" height="100%" viewBox="0 0 5056 1105" version="1.1" xmlns="http://www.w3.org/2000/svg" xmlns:xlink="http://www.w3.org/1999/xlink" xml:space="preserve" xmlns:serif="http://www.serif.com/" style="fill-rule:evenodd;clip-rule:evenodd;stroke-linejoin:round;stroke-miterlimit:2;"><g><path d="M886.016,1094.596l-157.487,0c-17.632,0 -32.159,-4.107 -43.579,-12.322c-11.421,-8.215 -19.335,-18.734 -23.743,-31.558l-51.694,-152.678l-333.007,0l-51.694,152.678c-4.007,11.22 -11.822,21.339 -23.443,30.355c-11.621,9.016 -25.847,13.525 -42.678,13.525l-158.689,0l339.018,-875.797l207.979,0l339.018,875.797Zm-562.626,-334.811l239.236,0l-80.547,-239.837c-5.21,-15.228 -11.321,-33.16 -18.333,-53.798c-7.013,-20.638 -13.925,-42.978 -20.738,-67.022c-6.412,24.445 -13.024,47.086 -19.836,67.924c-6.812,20.838 -13.224,38.871 -19.235,54.099l-80.547,238.635Z" style="fill:#ededed;fill-rule:nonzero;"/><path d="M1333.71,947.929c28.051,0 52.896,-2.404 74.536,-7.213c21.639,-4.809 42.077,-11.22 61.312,-19.235l0,-132.842l-86.558,0c-12.823,0 -22.842,-3.406 -30.055,-10.219c-7.213,-6.812 -10.82,-15.428 -10.82,-25.847l0,-111.804l311.368,0l0,369.674c-22.441,16.43 -45.784,30.556 -70.028,42.377c-24.244,11.822 -50.091,21.539 -77.541,29.153c-27.45,7.614 -56.703,13.224 -87.76,16.831c-31.057,3.607 -64.417,5.41 -100.083,5.41c-64.117,0 -123.425,-11.321 -177.925,-33.962c-54.499,-22.641 -101.685,-53.898 -141.558,-93.771c-39.873,-39.873 -71.13,-87.159 -93.771,-141.859c-22.641,-54.7 -33.962,-114.108 -33.962,-178.225c0,-65.319 10.82,-125.329 32.459,-180.028c21.639,-54.7 52.596,-101.886 92.869,-141.558c40.273,-39.672 88.962,-70.529 146.066,-92.569c57.104,-22.04 120.921,-33.06 191.449,-33.06c36.467,0 70.729,3.005 102.787,9.016c32.058,6.011 61.612,14.226 88.662,24.645c27.049,10.419 51.794,22.842 74.235,37.268c22.441,14.426 42.477,30.055 60.11,46.886l-58.907,89.563c-5.61,8.415 -12.322,15.027 -20.137,19.836c-7.814,4.809 -16.33,7.213 -25.547,7.213c-12.022,0 -24.445,-4.007 -37.268,-12.022c-16.029,-9.618 -31.157,-17.933 -45.383,-24.945c-14.226,-7.013 -28.752,-12.723 -43.579,-17.131c-14.827,-4.408 -30.456,-7.614 -46.886,-9.618c-16.43,-2.004 -34.864,-3.005 -55.301,-3.005c-38.069,0 -72.332,6.712 -102.787,20.137c-30.456,13.424 -56.403,32.359 -77.842,56.804c-21.439,24.445 -37.969,53.798 -49.59,88.061c-11.621,34.262 -17.432,72.432 -17.432,114.509c0,46.485 6.412,87.76 19.235,123.826c12.823,36.066 30.556,66.521 53.197,91.367c22.641,24.845 49.49,43.78 80.547,56.804c31.057,13.024 65.019,19.536 101.886,19.536Z" style="fill:#ededed;fill-rule:nonzero;"/><path d="M2117.061,934.104c27.25,0 51.594,-4.508 73.033,-13.525c21.439,-9.016 39.572,-21.94 54.399,-38.771c14.827,-16.831 26.148,-37.368 33.962,-61.612c7.814,-24.244 11.721,-51.794 11.721,-82.651l0,-518.746l203.171,0l0,518.746c0,53.698 -8.716,102.988 -26.148,147.87c-17.432,44.882 -42.377,83.552 -74.836,116.012c-32.459,32.459 -71.931,57.705 -118.416,75.738c-46.485,18.033 -98.78,27.049 -156.886,27.049c-58.507,0 -111.002,-9.016 -157.487,-27.049c-46.485,-18.033 -85.957,-43.279 -118.416,-75.738c-32.459,-32.459 -57.305,-71.13 -74.536,-116.012c-17.231,-44.882 -25.847,-94.172 -25.847,-147.87l0,-518.746l203.171,0l0,518.145c0,30.856 3.907,58.407 11.721,82.651c7.814,24.244 19.135,44.882 33.962,61.913c14.827,17.031 32.96,30.055 54.399,39.071c21.439,9.016 45.784,13.525 73.033,13.525Z" style="fill:#d4ff00;"/><path d="M2078.591,91.968c0,12.823 -2.505,24.645 -7.514,35.465c-5.009,10.82 -11.922,20.337 -20.738,28.552c-8.816,8.215 -19.035,14.627 -30.656,19.235c-11.621,4.608 -24.044,6.913 -37.268,6.913c-12.022,0 -23.543,-2.304 -34.563,-6.913c-11.02,-4.608 -20.738,-11.02 -29.153,-19.235c-8.415,-8.215 -15.128,-17.732 -20.137,-28.552c-5.009,-10.82 -7.514,-22.641 -7.514,-35.465c0,-12.423 2.505,-24.244 7.514,-35.465c5.009,-11.22 11.721,-21.038 20.137,-29.454c8.415,-8.415 18.133,-15.027 29.153,-19.836c11.02,-4.809 22.541,-7.213 34.563,-7.213c13.224,0 25.647,2.404 37.268,7.213c11.621,4.809 21.84,11.421 30.656,19.836c8.816,8.415 15.729,18.233 20.738,29.454c5.009,11.22 7.514,23.042 7.514,35.465Z" style="fill:#d4ff00;"/><path d="M2343.073,91.968c0,12.823 -2.505,24.645 -7.514,35.465c-5.009,10.82 -11.721,20.337 -20.137,28.552c-8.415,8.215 -18.333,14.627 -29.754,19.235c-11.421,4.608 -23.543,6.913 -36.366,6.913c-12.823,0 -24.945,-2.304 -36.366,-6.913c-11.421,-4.608 -21.339,-11.02 -29.754,-19.235c-8.415,-8.215 -15.128,-17.732 -20.137,-28.552c-5.009,-10.82 -7.514,-22.641 -7.514,-35.465c0,-12.423 2.505,-24.244 7.514,-35.465c5.009,-11.22 11.721,-21.038 20.137,-29.454c8.415,-8.415 18.333,-15.027 29.754,-19.836c11.421,-4.809 23.543,-7.213 36.366,-7.213c12.823,0 24.945,2.404 36.366,7.213c11.421,4.809 21.339,11.421 29.754,19.836c8.415,8.415 15.128,18.233 20.137,29.454c5.009,11.22 7.514,23.042 7.514,35.465Z" style="fill:#d4ff00;"/><path d="M3158.645,218.799l0,156.285l-359.456,0l0,204.373l275.302,0l0,150.274l-275.302,0l0,208.58l359.456,0l0,156.285l-563.828,0l0,-875.797l563.828,0Z" style="fill:#ededed;fill-rule:nonzero;"/><path d="M3465.204,770.605l0,323.991l-203.171,0l0,-875.797l284.92,0c63.315,0 117.314,6.512 161.995,19.536c44.681,13.024 81.148,31.157 109.4,54.399c28.252,23.242 48.789,50.692 61.612,82.35c12.823,31.658 19.235,66.121 19.235,103.389c0,28.452 -3.807,55.301 -11.421,80.547c-7.614,25.246 -18.935,48.589 -33.962,70.028c-15.027,21.439 -33.461,40.574 -55.301,57.405c-21.84,16.831 -46.986,30.656 -75.438,41.476c13.625,6.812 26.348,15.228 38.17,25.246c11.822,10.018 22.14,22.241 30.956,36.667l186.34,304.756l-183.935,0c-34.062,0 -58.507,-12.823 -73.334,-38.47l-145.465,-254.264c-6.412,-11.22 -13.925,-19.235 -22.541,-24.044c-8.616,-4.809 -20.738,-7.213 -36.366,-7.213l-51.694,0Zm0,-140.055l81.749,0c27.65,0 51.193,-3.506 70.629,-10.519c19.435,-7.013 35.364,-16.731 47.787,-29.153c12.423,-12.423 21.439,-26.949 27.049,-43.579c5.61,-16.63 8.415,-34.563 8.415,-53.798c0,-38.47 -12.523,-68.525 -37.569,-90.164c-25.046,-21.639 -63.816,-32.459 -116.312,-32.459l-81.749,0l0,259.674Z" style="fill:#ededed;fill-rule:nonzero;"/><path d="M4868.167,656.397c0,63.315 -10.92,122.223 -32.76,176.722c-21.84,54.499 -52.596,101.886 -92.268,142.159c-39.672,40.273 -87.46,71.831 -143.361,94.673c-55.902,22.842 -117.915,34.262 -186.039,34.262c-68.124,0 -130.238,-11.421 -186.34,-34.262c-56.102,-22.842 -104.09,-54.399 -143.963,-94.673c-39.873,-40.273 -70.729,-87.66 -92.569,-142.159c-21.84,-54.499 -32.76,-113.407 -32.76,-176.722c0,-63.315 10.92,-122.223 32.76,-176.722c21.84,-54.499 52.696,-101.786 92.569,-141.859c39.873,-40.073 87.86,-71.53 143.963,-94.372c56.102,-22.842 118.216,-34.262 186.34,-34.262c68.124,0 130.137,11.521 186.039,34.563c55.902,23.042 103.689,54.6 143.361,94.673c39.672,40.073 70.428,87.359 92.268,141.859c21.84,54.499 32.76,113.206 32.76,176.121Zm-207.979,0c0,-43.279 -5.61,-82.25 -16.831,-116.913c-11.22,-34.663 -27.35,-64.017 -48.388,-88.061c-21.038,-24.044 -46.785,-42.477 -77.241,-55.301c-30.456,-12.823 -65.119,-19.235 -103.99,-19.235c-39.272,0 -74.235,6.412 -104.891,19.235c-30.656,12.823 -56.503,31.257 -77.541,55.301c-21.038,24.044 -37.168,53.397 -48.388,88.061c-11.22,34.663 -16.831,73.634 -16.831,116.913c0,43.68 5.61,82.851 16.831,117.514c11.22,34.663 27.35,64.017 48.388,88.061c21.038,24.044 46.886,42.377 77.541,55c30.656,12.623 65.62,18.935 104.891,18.935c38.871,0 73.534,-6.312 103.99,-18.935c30.456,-12.623 56.203,-30.956 77.241,-55c21.038,-24.044 37.168,-53.397 48.388,-88.061c11.22,-34.663 16.831,-73.835 16.831,-117.514Z" style="fill:#ededed;fill-rule:nonzero;"/><path d="M5055.709,1014.049c0,12.823 -2.505,24.645 -7.514,35.465c-5.009,10.82 -11.721,20.337 -20.137,28.552c-8.415,8.215 -18.333,14.627 -29.754,19.235c-11.421,4.608 -23.543,6.913 -36.366,6.913c-12.823,0 -24.945,-2.304 -36.366,-6.913c-11.421,-4.608 -21.339,-11.02 -29.754,-19.235c-8.415,-8.215 -15.128,-17.732 -20.137,-28.552c-5.009,-10.82 -7.514,-22.641 -7.514,-35.465c0,-12.423 2.505,-24.244 7.514,-35.465c5.009,-11.22 11.721,-21.038 20.137,-29.454c8.415,-8.415 18.333,-15.027 29.754,-19.836c11.421,-4.809 23.543,-7.213 36.366,-7.213c12.823,0 24.945,2.404 36.366,7.213c11.421,4.809 21.339,11.421 29.754,19.836c8.415,8.415 15.128,18.233 20.137,29.454c5.009,11.22 7.514,23.042 7.514,35.465Z" style="fill:#d3ff00;"/></g></svg>